<?xml version="1.0" standalone="no"?>
<!DOCTYPE svg PUBLIC "-//W3C//DTD SVG 20010904//EN"
 "http://www.w3.org/TR/2001/REC-SVG-20010904/DTD/svg10.dtd">
<svg version="1.0" xmlns="http://www.w3.org/2000/svg"
 width="40px" height="40px" viewBox="0 0 64.000000 64.000000"
 preserveAspectRatio="xMidYMid meet">

<g transform="translate(0.000000,64.000000) scale(0.100000,-0.100000)"
fill="#fff" stroke="none">
<path d="M0 588 c0 -5 17 -8 38 -8 20 0 42 -4 49 -8 20 -12 100 -325 85 -330
-62 -20 -49 -112 16 -112 17 0 22 -6 22 -28 0 -35 27 -62 63 -62 34 0 57 24
57 61 0 29 0 29 60 29 60 0 60 0 60 -29 0 -37 23 -61 59 -61 37 0 57 25 64 78
l5 42 -198 0 c-161 0 -200 3 -210 15 -25 31 0 35 199 35 150 0 201 3 209 13 8
10 62 212 62 232 0 2 -7 11 -16 19 -13 14 -50 16 -244 16 l-228 0 -12 50 c-7
28 -17 51 -23 52 -38 5 -117 2 -117 -4z m254 -154 c3 -9 6 -29 6 -45 0 -26 -3
-29 -34 -29 -40 0 -42 2 -51 53 l-7 37 40 0 c27 0 42 -5 46 -16z m116 -29 c0
-44 0 -45 -34 -45 -35 0 -46 15 -46 68 0 19 5 22 40 22 l40 0 0 -45z m120 23
c0 -53 -11 -68 -46 -68 -34 0 -34 1 -34 45 l0 45 40 0 c35 0 40 -3 40 -22z
m105 -15 c-9 -50 -11 -53 -46 -53 -25 0 -29 4 -29 29 0 49 9 61 47 61 l35 0
-7 -37z m-325 -97 c0 -7 3 -28 6 -45 6 -28 4 -31 -19 -31 -30 0 -42 14 -52 58
-6 31 -6 32 29 32 24 0 36 -5 36 -14z m100 -31 c0 -41 -2 -45 -25 -45 -27 0
-30 4 -39 58 -5 31 -4 32 29 32 35 0 35 0 35 -45z m104 13 c-9 -54 -12 -58
-39 -58 -23 0 -25 4 -25 45 0 45 0 45 35 45 33 0 34 -1 29 -32z m92 -10 c-10
-36 -16 -44 -40 -46 -27 -3 -29 -2 -22 28 3 18 6 39 6 46 0 9 12 14 34 14 l35
0 -13 -42z m-268 -186 c4 -28 -24 -40 -45 -19 -14 13 -14 19 -3 32 18 22 44
15 48 -13z m232 13 c10 -12 10 -18 0 -30 -16 -19 -39 -19 -46 0 -8 21 2 45 19
45 8 0 20 -7 27 -15z"/>
</g>
</svg>
