<?xml version="1.0" standalone="no"?>
<!DOCTYPE svg PUBLIC "-//W3C//DTD SVG 20010904//EN"
 "http://www.w3.org/TR/2001/REC-SVG-20010904/DTD/svg10.dtd">
<svg version="1.0" xmlns="http://www.w3.org/2000/svg"
 width="60px" height="60px" viewBox="0 0 600.000000 600.000000"
 preserveAspectRatio="xMidYMid meet">

<g transform="translate(0.000000,600.000000) scale(0.100000,-0.100000)"
fill="#dc3545" stroke="none">
<path d="M2965 4904 c-344 -46 -597 -136 -848 -301 -232 -153 -412 -336 -562
-572 -215 -338 -323 -789 -281 -1170 21 -186 38 -267 91 -426 112 -343 327
-650 613 -878 203 -162 473 -296 707 -351 39 -10 79 -19 90 -22 230 -57 552
-51 820 15 269 66 552 209 765 386 294 245 524 610 613 975 48 194 52 235 52
475 -1 243 -13 337 -67 520 -173 589 -631 1066 -1208 1258 -196 66 -339 89
-560 92 -107 2 -208 1 -225 -1z m-842 -936 c9 -7 41 -87 71 -178 l54 -165 941
-3 941 -2 14 -29 c14 -27 9 -45 -109 -402 -75 -225 -132 -379 -142 -386 -13
-10 -167 -13 -690 -13 -370 0 -673 -2 -673 -5 0 -3 16 -55 36 -115 l37 -110
585 0 c419 0 596 -3 624 -12 50 -15 120 -76 143 -125 11 -23 18 -62 19 -103 0
-55 -5 -74 -27 -113 -32 -54 -76 -91 -136 -112 -58 -20 -90 -19 -154 5 -118
44 -181 172 -144 293 l15 47 -378 0 -379 0 16 -55 c53 -185 -135 -357 -312
-285 -138 56 -195 218 -121 344 22 37 78 86 112 97 7 3 -74 260 -205 656
l-216 652 -107 1 c-94 0 -111 3 -128 20 -11 11 -20 31 -20 45 0 14 9 34 20 45
18 18 33 20 158 20 95 0 143 -4 155 -12z"/>
<path d="M2299 3478 c4 -13 20 -65 36 -115 l30 -93 208 0 c114 0 207 3 207 8
-1 4 -9 54 -18 112 l-18 105 -226 3 -226 2 7 -22z"/>
<path d="M2873 3468 c3 -18 11 -70 18 -115 l13 -83 248 0 248 0 0 30 c0 16 4
51 9 77 5 26 12 65 16 86 l6 37 -282 0 -281 0 5 -32z"/>
<path d="M3537 3393 c-10 -60 -17 -111 -17 -116 0 -4 93 -6 207 -5 l206 3 38
113 38 112 -228 0 -227 0 -17 -107z"/>
<path d="M2449 3028 l38 -113 164 -2 c90 -2 169 1 176 5 9 6 9 27 -2 92 -8 47
-17 95 -20 108 -5 22 -6 22 -199 22 l-195 0 38 -112z"/>
<path d="M2931 3128 c0 -7 8 -58 17 -113 l18 -100 184 0 184 0 11 70 c7 39 15
89 19 113 l6 42 -220 0 c-170 0 -220 -3 -219 -12z"/>
<path d="M3482 3063 c-7 -43 -15 -95 -18 -116 l-7 -37 178 2 178 3 34 100 c18
54 33 105 33 112 0 10 -42 13 -193 13 l-193 0 -12 -77z"/>
<path d="M2510 2422 c-44 -21 -74 -79 -65 -122 4 -17 20 -44 37 -60 25 -25 37
-30 78 -30 41 0 53 5 79 31 26 25 31 38 31 78 0 55 -20 88 -66 107 -43 18 -52
18 -94 -4z"/>
<path d="M3710 2433 c-33 -6 -60 -31 -77 -72 -18 -42 -9 -82 27 -121 22 -24
36 -30 70 -30 77 0 125 45 123 116 -1 45 -27 82 -68 100 -19 8 -38 13 -42 13
-4 -1 -19 -4 -33 -6z"/>
</g>
</svg>
