<?xml version="1.0" standalone="no"?>
<!DOCTYPE svg PUBLIC "-//W3C//DTD SVG 20010904//EN"
 "http://www.w3.org/TR/2001/REC-SVG-20010904/DTD/svg10.dtd">
<svg version="1.0" xmlns="http://www.w3.org/2000/svg"
 width="64.000000pt" height="64.000000pt" viewBox="0 0 64.000000 64.000000"
 preserveAspectRatio="xMidYMid meet">

<g transform="translate(0.000000,64.000000) scale(0.100000,-0.100000)"
fill="#000000" stroke="none">
<path d="M68 613 c-44 -5 -52 -23 -10 -23 15 0 32 -4 38 -8 6 -4 27 -73 46
-154 l35 -146 -23 -11 c-46 -20 -39 -94 9 -106 12 -3 101 -4 197 -3 148 3 175
5 175 18 0 13 -29 15 -187 18 -180 2 -188 3 -188 22 0 19 7 20 188 20 174 0
190 2 206 19 15 16 66 197 66 232 0 5 -9 18 -20 29 -19 19 -33 20 -234 20
l-214 0 -9 37 c-9 40 -14 42 -75 36z m508 -126 c3 -8 -5 -56 -18 -108 l-23
-94 -161 -3 -161 -2 -12 52 c-6 29 -18 79 -26 111 l-13 57 204 0 c162 0 206
-3 210 -13z"/>
<path d="M200 120 c-11 -11 -20 -29 -20 -40 0 -26 34 -60 60 -60 26 0 60 34
60 60 0 26 -34 60 -60 60 -11 0 -29 -9 -40 -20z m58 -43 c2 -12 -3 -17 -17
-17 -15 0 -21 6 -21 21 0 25 33 22 38 -4z"/>
<path d="M420 120 c-11 -11 -20 -29 -20 -40 0 -26 34 -60 60 -60 26 0 60 34
60 60 0 26 -34 60 -60 60 -11 0 -29 -9 -40 -20z m58 -43 c2 -12 -3 -17 -17
-17 -15 0 -21 6 -21 21 0 25 33 22 38 -4z"/>
</g>
</svg>
