<?xml version="1.0" standalone="no"?>
<!DOCTYPE svg PUBLIC "-//W3C//DTD SVG 20010904//EN"
 "http://www.w3.org/TR/2001/REC-SVG-20010904/DTD/svg10.dtd">
<svg version="1.0" xmlns="http://www.w3.org/2000/svg"
 width="50px" height="40px" viewBox="0 0 64.000000 64.000000"
 preserveAspectRatio="xMidYMid meet">

<g transform="translate(0.000000,64.000000) scale(0.100000,-0.100000)"
fill="#000000" stroke="none">
<path d="M20 540 c-11 -11 -20 -29 -20 -40 0 -11 9 -29 20 -40 19 -19 33 -20
300 -20 267 0 281 1 300 20 25 25 25 55 0 80 -19 19 -33 20 -300 20 -267 0
-281 -1 -300 -20z"/>
<path d="M20 360 c-11 -11 -20 -29 -20 -40 0 -11 9 -29 20 -40 19 -19 33 -20
300 -20 267 0 281 1 300 20 25 25 25 55 0 80 -19 19 -33 20 -300 20 -267 0
-281 -1 -300 -20z"/>
<path d="M20 180 c-11 -11 -20 -29 -20 -40 0 -11 9 -29 20 -40 19 -19 33 -20
300 -20 267 0 281 1 300 20 25 25 25 55 0 80 -19 19 -33 20 -300 20 -267 0
-281 -1 -300 -20z"/>
</g>
</svg>
