<?xml version="1.0" standalone="no"?>
<!DOCTYPE svg PUBLIC "-//W3C//DTD SVG 20010904//EN"
 "http://www.w3.org/TR/2001/REC-SVG-20010904/DTD/svg10.dtd">
<svg version="1.0" xmlns="http://www.w3.org/2000/svg"
 width="900.000000pt" height="287.000000pt" viewBox="0 0 900.000000 287.000000"
 preserveAspectRatio="xMidYMid meet">

<g transform="translate(0.000000,287.000000) scale(0.100000,-0.100000)"
fill="#dc3545" stroke="none">
<path d="M36 2830 c-42 -47 -45 -69 -13 -106 25 -29 79 -42 178 -43 118 -2
112 4 147 -139 18 -70 127 -511 243 -981 l212 -854 281 7 c155 3 371 9 481 11
245 7 1028 25 1073 25 l32 0 -15 37 c-22 52 -60 89 -125 121 l-55 27 -430 -2
c-236 -2 -576 -6 -755 -9 l-325 -6 -229 873 c-127 481 -242 919 -256 974 l-27
100 -190 3 -190 2 -37 -40z"/>
<path d="M1551 2675 c-292 -76 -484 -260 -562 -540 -30 -105 -32 -295 -5 -400
26 -102 106 -260 168 -332 99 -116 252 -217 393 -259 83 -25 264 -25 360 0
177 47 288 110 409 230 l89 88 -24 19 c-13 11 -49 30 -79 44 -30 14 -57 29
-60 34 -3 4 -16 15 -29 24 -24 16 -25 15 -75 -37 -112 -116 -243 -175 -387
-176 -181 0 -322 76 -424 230 -25 37 -45 70 -45 73 0 3 268 112 595 242 558
222 595 239 589 259 -28 90 -119 229 -206 313 -192 186 -449 254 -707 188z
m314 -240 c82 -22 144 -58 206 -121 38 -38 49 -55 38 -59 -8 -3 -210 -83 -449
-178 l-435 -173 -3 49 c-11 167 104 354 266 436 117 59 259 76 377 46z"/>
<path d="M3361 2229 c-224 -38 -344 -254 -257 -463 21 -51 93 -124 151 -154
42 -22 67 -27 150 -30 124 -5 194 17 267 86 l48 44 -68 48 -67 47 -35 -28
c-46 -37 -110 -51 -173 -37 -142 30 -174 212 -53 302 22 17 42 21 105 21 70 0
81 -3 116 -29 l38 -29 64 34 c36 19 67 38 70 42 9 14 -68 87 -118 112 -38 20
-157 49 -179 44 -3 -1 -29 -5 -59 -10z"/>
<path d="M4047 2229 c-107 -17 -221 -117 -252 -221 -47 -160 19 -321 164 -395
55 -29 72 -33 141 -33 90 0 146 17 206 63 88 67 143 194 129 300 -23 186 -201
317 -388 286z m144 -182 c45 -29 69 -80 69 -142 0 -96 -62 -165 -149 -165 -99
0 -166 76 -158 178 9 123 141 194 238 129z"/>
<path d="M4845 2235 c-5 -2 -26 -6 -46 -9 -21 -4 -53 -18 -73 -31 l-36 -24 0
24 c0 25 -1 25 -87 25 l-88 0 0 -315 -1 -315 88 0 87 0 3 203 c3 191 4 204 26
234 29 41 82 60 123 43 56 -24 63 -53 63 -277 l1 -203 88 0 87 0 0 188 c0 175
2 191 23 232 17 36 31 48 63 59 34 12 44 12 69 0 50 -24 55 -45 55 -271 l0
-208 90 0 90 0 0 203 c0 231 -9 305 -44 357 -68 103 -256 111 -352 15 l-25
-26 -27 29 c-15 16 -41 36 -57 44 -30 15 -101 29 -120 23z"/>
<path d="M5861 2229 c-24 -5 -62 -20 -83 -34 l-38 -25 0 25 c0 25 -1 25 -87
25 l-88 0 0 -315 0 -315 87 0 87 0 3 203 c3 191 4 204 26 234 29 41 82 60 123
43 56 -23 62 -53 63 -277 l1 -203 88 0 87 0 0 188 c0 164 3 192 20 230 35 78
131 94 171 29 17 -29 19 -52 19 -239 l0 -208 90 0 90 0 0 198 c0 234 -10 310
-44 362 -68 103 -256 111 -352 15 l-27 -27 -27 30 c-51 56 -125 77 -209 61z"/>
<path d="M6848 2230 c-65 -11 -144 -56 -185 -107 -52 -63 -73 -128 -73 -227 0
-72 4 -90 31 -144 36 -74 92 -124 168 -153 47 -17 72 -20 151 -17 112 5 173
30 234 98 l37 42 -71 34 -71 34 -40 -27 c-77 -51 -182 -41 -239 23 -56 64 -57
64 210 64 268 0 245 -7 241 75 -8 161 -113 279 -271 304 -36 6 -67 10 -70 10
-3 -1 -26 -5 -52 -9z m114 -150 c43 -12 98 -55 98 -76 0 -11 -27 -14 -145 -14
-82 0 -145 4 -145 9 0 18 62 71 88 77 15 3 32 7 37 9 18 6 29 5 67 -5z"/>
<path d="M7522 2230 c-18 -4 -43 -17 -56 -29 -28 -26 -36 -26 -36 -1 0 18 -7
20 -75 20 l-75 0 0 -315 0 -315 88 0 87 0 2 205 c2 258 15 294 101 283 21 -3
27 5 48 62 29 80 29 77 2 85 -42 12 -53 13 -86 5z"/>
<path d="M7912 2229 c-108 -18 -198 -84 -249 -182 -24 -45 -28 -63 -28 -142 0
-73 4 -98 23 -136 34 -70 87 -125 150 -156 52 -26 66 -28 172 -28 96 0 122 3
161 21 49 23 132 91 127 105 -2 5 -32 29 -67 54 l-65 45 -25 -24 c-41 -38 -72
-49 -131 -49 -85 0 -134 32 -166 108 -30 73 2 162 74 203 62 35 145 31 206 -9
l47 -32 52 28 c99 53 96 47 38 104 -79 77 -198 111 -319 90z"/>
<path d="M8598 2230 c-108 -18 -208 -105 -243 -211 -27 -81 -18 -208 20 -278
37 -67 92 -115 164 -142 47 -17 72 -20 151 -17 112 5 173 30 234 98 l37 42
-71 34 -71 34 -40 -27 c-77 -51 -182 -41 -239 23 -56 64 -58 64 213 64 l243 0
-7 78 c-4 42 -14 95 -23 116 -40 96 -129 165 -240 185 -65 12 -61 12 -128 1z
m114 -150 c43 -12 98 -55 98 -76 0 -11 -27 -14 -145 -14 -82 0 -145 4 -145 9
0 18 62 71 88 77 15 3 32 7 37 9 18 6 29 5 67 -5z"/>
<path d="M2530 1925 l0 -75 220 0 220 0 0 75 0 75 -220 0 -220 0 0 -75z"/>
<path d="M2243 642 c-220 -79 -285 -361 -121 -524 67 -67 127 -92 223 -93 66
0 90 5 136 26 201 95 249 359 92 516 -82 82 -222 114 -330 75z"/>
<path d="M1030 641 c-161 -53 -251 -192 -229 -355 14 -108 86 -203 187 -248
73 -32 190 -30 264 6 107 51 169 145 176 267 6 100 -14 162 -75 229 -64 72
-129 102 -223 106 -41 2 -86 0 -100 -5z"/>
</g>
</svg>
