<?xml version="1.0" standalone="no"?>
<!DOCTYPE svg PUBLIC "-//W3C//DTD SVG 20010904//EN"
 "http://www.w3.org/TR/2001/REC-SVG-20010904/DTD/svg10.dtd">
<svg version="1.0" xmlns="http://www.w3.org/2000/svg"
 width="64.000000pt" height="64.000000pt" viewBox="0 0 64.000000 64.000000"
 preserveAspectRatio="xMidYMid meet">

<g transform="translate(0.000000,64.000000) scale(0.100000,-0.100000)"
fill="#000000" stroke="none">
<path d="M45 595 l-25 -24 0 -251 0 -251 25 -24 c23 -24 29 -25 163 -25 174 0
186 6 187 96 0 54 -2 59 -22 62 -21 3 -23 0 -23 -51 0 -41 -4 -56 -16 -61 -9
-3 -67 -6 -129 -6 -90 0 -117 3 -129 16 -14 13 -16 49 -16 239 0 123 3 230 6
239 5 14 28 16 145 16 l139 0 0 -55 c0 -53 1 -55 26 -55 26 0 26 1 22 61 -7
94 -17 99 -190 99 -134 0 -140 -1 -163 -25z"/>
<path d="M450 412 l0 -72 -125 0 c-118 0 -125 -1 -125 -20 0 -19 7 -20 125
-20 l125 0 0 -72 0 -73 82 83 83 82 -83 82 -82 83 0 -73z m72 -124 l-32 -33 0
65 0 65 32 -33 33 -32 -33 -32z"/>
</g>
</svg>
