<?xml version="1.0" standalone="no"?>
<!DOCTYPE svg PUBLIC "-//W3C//DTD SVG 20010904//EN"
 "http://www.w3.org/TR/2001/REC-SVG-20010904/DTD/svg10.dtd">
<svg version="1.0" xmlns="http://www.w3.org/2000/svg"
 width="64.000000pt" height="64.000000pt" viewBox="0 0 64.000000 64.000000"
 preserveAspectRatio="xMidYMid meet">

<g transform="translate(0.000000,64.000000) scale(0.100000,-0.100000)"
fill="#000000" stroke="none">
<path d="M196 625 c-39 -21 -53 -42 -61 -92 -6 -41 -7 -42 -48 -45 l-42 -3 -9
-178 c-12 -246 -12 -247 186 -247 113 0 122 -1 149 -25 92 -77 239 -7 239 113
0 82 -47 140 -127 157 l-32 6 -7 90 -7 89 -43 0 c-42 0 -44 1 -44 30 0 43 -25
87 -60 105 -37 19 -57 19 -94 0z m98 -44 c10 -11 19 -35 19 -53 l2 -33 -72 -3
-73 -3 0 36 c0 22 8 43 20 55 26 26 81 26 104 1z m-164 -146 c0 -18 5 -25 20
-25 15 0 20 7 20 25 0 24 2 25 75 25 73 0 75 -1 75 -25 0 -16 6 -25 15 -25 9
0 15 9 15 25 0 21 5 25 30 25 30 0 30 0 30 -57 0 -32 3 -68 6 -80 5 -18 1 -25
-18 -32 -57 -22 -96 -99 -84 -167 l7 -34 -111 0 c-154 0 -154 0 -145 168 9
188 12 202 41 202 19 0 24 -5 24 -25z m390 -180 c54 -28 75 -98 45 -155 -21
-40 -53 -60 -98 -60 -53 0 -91 23 -112 66 -47 100 65 201 165 149z"/>
<path d="M480 175 c-32 -33 -35 -34 -52 -18 -14 13 -21 14 -30 5 -9 -9 -5 -19
17 -42 l29 -30 43 42 c24 23 43 48 43 54 0 26 -18 22 -50 -11z"/>
</g>
</svg>
