<?xml version="1.0" standalone="no"?>
<!DOCTYPE svg PUBLIC "-//W3C//DTD SVG 20010904//EN"
 "http://www.w3.org/TR/2001/REC-SVG-20010904/DTD/svg10.dtd">
<svg version="1.0" xmlns="http://www.w3.org/2000/svg"
 width="64.000000pt" height="64.000000pt" viewBox="0 0 64.000000 64.000000"
 preserveAspectRatio="xMidYMid meet">

<g transform="translate(0.000000,64.000000) scale(0.100000,-0.100000)"
fill="#000000" stroke="none">
<path d="M114 629 c-18 -5 -48 -27 -67 -48 -45 -50 -56 -109 -32 -166 30 -74
77 -106 155 -107 92 0 162 69 162 161 0 76 -33 126 -105 156 -40 17 -67 18
-113 4z m36 -48 c0 -10 -6 -24 -14 -30 -26 -22 -26 -52 -1 -77 13 -13 31 -24
40 -24 17 0 20 -25 4 -36 -6 -3 -16 -1 -22 5 -6 6 -17 11 -24 11 -18 0 -16
-29 2 -36 8 -4 15 -17 15 -31 0 -21 -4 -23 -22 -18 -13 4 -38 22 -55 41 -29
29 -33 41 -33 85 0 46 4 55 39 90 42 42 71 50 71 20z m106 -14 c65 -59 56
-162 -19 -207 -18 -11 -35 -20 -39 -20 -14 0 -8 41 7 56 30 31 6 94 -37 94
-10 0 -18 6 -18 14 0 21 20 30 33 17 15 -15 37 -14 37 3 0 7 -7 19 -15 26 -19
16 -19 50 0 50 8 0 31 -15 51 -33z"/>
<path d="M405 500 l-29 -30 31 -31 c18 -18 36 -28 42 -24 9 5 9 10 0 21 -10
12 1 14 70 14 74 0 81 2 81 20 0 18 -7 20 -81 20 -67 0 -79 2 -70 13 10 13 6
27 -9 27 -3 0 -19 -14 -35 -30z"/>
<path d="M300 166 c0 -74 3 -141 6 -150 5 -14 30 -16 170 -16 l164 0 0 150 0
150 -170 0 -170 0 0 -134z m120 39 l0 -55 55 0 55 0 0 55 0 55 35 0 35 0 0
-110 0 -110 -130 0 -130 0 0 110 0 110 40 0 40 0 0 -55z m70 20 c0 -28 -4 -35
-20 -35 -16 0 -20 7 -20 35 0 28 4 35 20 35 16 0 20 -7 20 -35z"/>
<path d="M192 188 c-8 -8 -9 -15 -1 -25 9 -11 -4 -13 -70 -13 -65 0 -81 -3
-81 -15 0 -12 16 -15 81 -15 72 0 80 -2 69 -15 -10 -12 -10 -19 -1 -28 9 -9
20 -3 46 24 l35 35 -33 32 c-25 25 -36 29 -45 20z"/>
</g>
</svg>
