<?xml version="1.0" standalone="no"?>
<!DOCTYPE svg PUBLIC "-//W3C//DTD SVG 20010904//EN"
 "http://www.w3.org/TR/2001/REC-SVG-20010904/DTD/svg10.dtd">
<svg version="1.0" xmlns="http://www.w3.org/2000/svg"
 width="55.000000pt" height="682.000000pt" viewBox="0 0 1155.000000 682.000000"
 preserveAspectRatio="xMidYMid meet">

<g transform="translate(0.000000,682.000000) scale(0.100000,-0.100000)"
fill="#dc3545" stroke="none">
<path d="M3410 5904 c-19 -2 -72 -7 -117 -10 l-83 -6 0 -150 0 -150 77 7 c42
4 131 8 198 9 131 1 157 -7 191 -59 9 -14 69 -170 134 -347 325 -891 410
-1090 499 -1171 96 -86 50 -81 874 -85 l727 -3 0 131 0 130 -704 0 -705 0 -20
26 c-14 18 -21 41 -21 70 l0 42 518 4 c570 5 568 5 666 69 58 39 126 133 200
278 95 187 132 344 124 527 -5 105 -6 108 -36 135 -61 54 -38 53 -1003 57
l-896 3 -17 62 c-45 162 -178 337 -302 398 -59 29 -75 33 -167 35 -56 1 -118
0 -137 -2z m1080 -791 c83 -76 35 -203 -76 -203 -96 0 -152 87 -109 170 22 42
53 60 107 60 38 0 54 -6 78 -27z m391 10 c68 -40 74 -129 13 -182 -78 -69
-204 -16 -204 84 0 90 109 146 191 98z m425 -17 c29 -29 34 -41 34 -81 0 -40
-5 -52 -34 -81 -30 -30 -40 -34 -86 -34 -46 0 -56 4 -86 34 -29 29 -34 41 -34
81 0 40 5 52 34 81 30 30 40 34 86 34 46 0 56 -4 86 -34z m389 12 c41 -32 59
-81 45 -124 -34 -101 -178 -116 -226 -23 -27 53 -15 105 34 146 37 31 109 31
147 1z m-1016 -292 c15 -8 35 -26 45 -40 21 -33 21 -100 -1 -133 -18 -27 -68
-53 -104 -53 -35 0 -84 28 -102 59 -61 103 55 222 162 167z m400 -1 c28 -14
61 -68 61 -99 0 -35 -30 -85 -59 -100 -38 -20 -93 -20 -130 -1 -28 14 -61 68
-61 100 0 31 32 85 59 100 34 19 95 19 130 0z m416 -7 c41 -32 59 -81 45 -124
-34 -101 -178 -116 -226 -23 -27 53 -15 105 34 146 37 31 109 31 147 1z"/>
<path d="M2898 5890 c-143 -17 -276 -81 -379 -180 -82 -80 -123 -159 -140
-272 -11 -65 -10 -89 5 -163 24 -122 65 -201 146 -280 112 -108 219 -151 563
-230 141 -32 264 -89 303 -140 59 -78 81 -201 48 -270 -49 -104 -252 -172
-437 -148 -168 23 -286 77 -438 198 l-65 53 -78 -89 c-43 -49 -87 -100 -97
-113 l-19 -24 77 -57 c217 -158 434 -238 648 -237 263 0 478 70 585 190 57 63
123 191 145 277 81 319 -192 582 -717 691 -195 40 -304 102 -349 199 -34 73
-16 169 42 222 48 44 187 93 267 93 l42 0 2 130 c0 72 1 136 2 143 1 15 -63
18 -156 7z"/>
<path d="M8420 5404 c-104 -27 -198 -82 -285 -165 -105 -101 -110 -98 -101 50
l6 111 -155 0 -155 0 0 -588 c0 -324 3 -772 7 -995 l6 -407 149 0 148 0 0 370
0 370 26 0 c16 0 48 -19 91 -55 121 -103 256 -155 401 -155 109 0 171 14 272
62 114 54 236 174 297 293 73 142 88 207 88 385 0 135 -3 165 -23 230 -42 134
-97 226 -192 320 -95 95 -184 147 -300 174 -81 19 -207 19 -280 0z m165 -279
c84 -22 147 -60 209 -125 226 -236 160 -629 -129 -771 -67 -33 -73 -34 -190
-34 -109 0 -125 2 -177 27 -154 72 -249 231 -251 423 -2 109 14 178 61 268 91
176 284 262 477 212z"/>
<path d="M6675 5396 c-160 -32 -271 -92 -391 -211 -148 -148 -217 -310 -217
-515 0 -204 69 -367 217 -515 155 -154 313 -219 531 -219 218 0 376 65 531
219 78 77 98 104 138 185 62 127 80 201 79 330 0 215 -75 385 -234 534 -88 83
-213 153 -324 181 -86 22 -245 27 -330 11z m260 -231 c87 -23 153 -62 225
-135 201 -202 201 -518 0 -720 -101 -101 -213 -150 -345 -150 -129 0 -243 48
-341 145 -161 159 -199 392 -96 603 33 69 138 177 208 215 105 56 235 71 349
42z"/>
<path d="M4645 3791 c-76 -35 -115 -95 -115 -177 0 -107 81 -184 195 -184 114
0 195 77 195 185 0 60 -19 103 -63 142 -61 54 -142 67 -212 34z"/>
<path d="M5229 3783 c-113 -58 -140 -194 -56 -290 40 -45 82 -63 149 -63 104
0 185 68 196 165 10 89 -51 181 -135 204 -60 17 -95 13 -154 -16z"/>
<path d="M2480 3204 c-178 -47 -305 -172 -367 -358 -37 -113 -39 -285 -5 -396
78 -248 257 -380 517 -380 183 1 312 49 415 155 60 64 99 130 100 172 0 18 -9
23 -54 33 -30 6 -74 10 -97 8 -40 -3 -45 -7 -72 -53 -41 -71 -82 -110 -140
-135 -72 -31 -154 -37 -230 -16 -143 39 -218 134 -243 309 l-6 47 425 0 c378
0 426 2 431 16 3 9 6 48 6 88 0 247 -160 456 -391 511 -80 19 -217 18 -289 -1z
m305 -176 c28 -14 62 -39 77 -55 33 -35 74 -124 82 -180 l6 -43 -324 0 -325 0
6 38 c15 105 100 213 196 251 76 31 212 25 282 -11z"/>
<path d="M6489 3202 c-174 -46 -315 -196 -364 -387 -22 -85 -19 -241 5 -343
46 -194 147 -309 317 -366 241 -80 492 -30 627 125 43 50 101 162 93 183 -6
14 -72 26 -148 26 -46 0 -48 -1 -69 -45 -59 -123 -215 -194 -365 -166 -143 27
-240 141 -261 309 l-7 52 419 0 c231 0 425 4 433 9 11 7 13 28 7 103 -9 119
-20 166 -62 254 -38 80 -106 150 -191 197 -118 63 -299 84 -434 49z m281 -158
c39 -12 66 -29 105 -68 52 -52 75 -100 91 -188 l6 -38 -325 0 -324 0 9 53 c20
109 92 198 192 236 64 25 173 27 246 5z"/>
<path d="M4725 3196 c-62 -19 -100 -42 -157 -93 l-53 -47 -3 67 -3 67 -93 0
-93 0 -6 -202 c-10 -299 -8 -1301 2 -1317 7 -11 27 -12 97 -7 49 4 91 10 94
12 2 3 6 115 8 249 l4 244 50 -35 c180 -123 458 -92 624 71 109 106 164 255
164 439 0 56 -7 129 -15 164 -43 180 -174 318 -362 381 -72 24 -194 27 -258 7z
m271 -231 c196 -122 219 -451 42 -622 -61 -60 -118 -83 -203 -83 -147 0 -258
94 -299 255 -38 143 -6 281 87 382 68 74 144 104 253 100 59 -2 79 -7 120 -32z"/>
<path d="M7621 3190 c-41 -11 -93 -31 -116 -45 -154 -90 -201 -297 -95 -418
58 -66 134 -100 359 -162 111 -30 216 -62 231 -70 33 -17 66 -19 74 -6 3 5 40
21 81 36 41 15 75 31 75 34 0 17 -35 53 -74 76 -56 33 -132 59 -298 101 -191
48 -240 67 -282 114 -57 64 -42 117 46 165 47 26 64 30 158 33 94 3 110 1 150
-20 29 -15 56 -40 75 -69 17 -25 35 -53 40 -61 8 -12 27 -14 100 -9 l90 6 -3
30 c-5 47 -36 108 -78 155 -71 78 -184 119 -349 126 -89 3 -124 1 -184 -16z"/>
<path d="M8718 3195 c-120 -30 -213 -97 -248 -179 -24 -55 -33 -132 -22 -184
10 -42 68 -131 87 -132 6 0 55 19 109 42 l99 42 -29 21 c-76 55 -95 97 -67
153 30 62 87 86 216 90 104 4 110 3 171 -27 35 -17 69 -31 75 -31 19 0 151 69
151 79 0 25 -89 83 -165 107 -101 33 -286 42 -377 19z"/>
<path d="M3170 3183 c0 -6 55 -87 122 -179 265 -367 249 -342 233 -374 -8 -16
-74 -111 -146 -212 -148 -205 -227 -321 -235 -343 -5 -13 11 -15 112 -15 l119
0 93 145 c103 160 200 295 210 295 10 -1 158 -207 238 -332 l69 -108 113 0
c66 0 112 4 112 10 0 5 -84 134 -187 287 -124 184 -186 286 -186 304 0 17 35
74 105 170 112 155 225 320 234 344 5 13 -11 15 -107 15 l-114 0 -118 -168
c-64 -92 -127 -179 -140 -195 l-23 -27 -99 147 c-55 80 -118 166 -140 190
l-40 43 -112 6 c-75 5 -113 3 -113 -3z"/>
<path d="M5480 2625 l0 -556 103 3 102 3 0 330 c0 182 4 346 9 365 25 100 110
200 190 221 31 8 57 8 113 -4 41 -8 75 -11 77 -8 14 25 46 142 42 150 -11 18
-116 51 -160 51 -66 0 -136 -25 -206 -75 l-65 -45 -3 60 -3 60 -99 0 -100 0 0
-555z"/>
<path d="M9215 2979 c-64 -43 -85 -64 -85 -87 0 -12 14 -14 78 -9 93 6 112 13
112 39 0 34 -22 98 -34 98 -6 0 -38 -19 -71 -41z"/>
<path d="M8764 2705 c-60 -31 -113 -60 -117 -64 -13 -13 63 -39 232 -82 85
-21 175 -49 200 -61 50 -25 91 -77 91 -116 0 -60 -67 -132 -149 -160 -78 -27
-221 -8 -305 42 -34 20 -51 40 -75 88 -17 33 -31 67 -31 75 0 7 -3 13 -7 13
-21 -1 -186 -30 -190 -34 -3 -3 1 -22 7 -43 37 -113 107 -201 192 -241 221
-104 512 -74 662 68 120 113 137 275 41 387 -49 58 -81 75 -235 127 -202 67
-188 67 -316 1z"/>
<path d="M8176 2410 c-81 -34 -92 -42 -125 -91 -54 -81 -95 -99 -244 -109
-119 -8 -191 -26 -266 -65 l-33 -17 22 -15 c63 -45 250 -63 390 -39 167 29
293 109 336 211 18 43 30 150 18 157 -5 3 -49 -11 -98 -32z"/>
<path d="M7406 2424 c-43 -7 -80 -15 -83 -18 -8 -8 37 -134 56 -158 l18 -21
69 22 c38 12 77 28 87 35 16 13 16 16 -7 67 -13 30 -26 62 -29 72 -7 19 -4 19
-111 1z"/>
<path d="M7285 2189 c-271 -102 -853 -276 -1280 -383 -674 -168 -1451 -300
-2070 -351 -526 -43 -920 -24 -1290 65 -218 52 -337 111 -467 229 -60 55 -68
60 -54 33 44 -86 208 -210 370 -281 560 -245 1632 -224 3035 60 435 88 701
156 1179 300 436 131 772 248 772 268 0 13 -86 91 -100 91 -8 -1 -51 -15 -95
-31z"/>
</g>
</svg>
