<?xml version="1.0" standalone="no"?>
<!DOCTYPE svg PUBLIC "-//W3C//DTD SVG 20010904//EN"
 "http://www.w3.org/TR/2001/REC-SVG-20010904/DTD/svg10.dtd">
<svg version="1.0" xmlns="http://www.w3.org/2000/svg"
 width="64.000000pt" height="64.000000pt" viewBox="0 0 64.000000 64.000000"
 preserveAspectRatio="xMidYMid meet">

<g transform="translate(0.000000,64.000000) scale(0.100000,-0.100000)"
fill="#000000" stroke="none">
<path d="M261 627 c-54 -19 -93 -76 -94 -135 -1 -89 61 -155 147 -155 89 0
150 61 150 150 0 107 -102 177 -203 140z m135 -61 c29 -29 34 -41 34 -80 0
-39 -5 -51 -35 -81 -30 -29 -43 -35 -80 -35 -37 0 -50 6 -80 35 -29 30 -35 43
-35 80 0 36 6 50 34 79 29 31 39 36 81 36 40 0 52 -5 81 -34z"/>
<path d="M140 312 c-44 -22 -68 -64 -77 -138 -11 -80 -6 -108 23 -137 32 -33
60 -37 234 -37 176 0 202 4 236 39 25 25 26 30 22 107 -5 97 -26 141 -81 168
-38 18 -38 18 -96 -8 -72 -32 -92 -32 -159 -1 -64 30 -58 29 -102 7z m95 -42
c22 -11 59 -20 83 -20 23 0 62 9 84 20 52 25 80 25 102 1 46 -51 61 -176 26
-211 -19 -19 -33 -20 -210 -20 -177 0 -191 1 -210 20 -36 36 -23 157 23 208
25 27 51 28 102 2z"/>
</g>
</svg>
